_________________________  Visit us at _________________________
  
http://p2pdl.com  ____________________________  http://tinym.eu

 
http://i.imgur.com/pi9DP.jpg


Release Title: Dark Shadows (2012) 

					
Genre: Comedy | Fantasy 
IMDb Rating: 6.5/10 
http://www.imdb.com/title/tt1077368/


Plot: An imprisoned vampire, Barnabas Collins, is set free and returns to his ancestral home, where his dysfunctional descendants are in need of his protection. 


Director:  Tim Burton


Stars: Johnny Depp, Michelle Pfeiffer and Eva Green .


Rated: PG-13 for comic horror violence, sexual content, some drug use, language and smoking.


General
Format                         : Matroska
Format version                 : Version 2
File size                      : 1.75 GiB
Duration                       : 1h 53mn
Overall bit rate               : 2 211 Kbps
Movie name                     : Dark Shadows 2012 BRRip 1080p BRRip  x264 6Ch-AC3 - ViZNU [P2PDL]


Video
ID                             : 1
Format                         : AVC
Format/Info                    : Advanced Video Codec
Format profile                 : High@L4.1
Duration                       : 1h 53mn
Bit rate                       : 1 750 Kbps
Width                          : 1 920 pixels
Height                         : 1 080 pixels
Display aspect ratio           : 16:9
Frame rate                     : 23.976 fps
Color space                    : YUV
Chroma subsampling             : 4:2:0
Stream size                    : 1.36 GiB (78%)
Writing library                : x264
Default                        : Yes


Audio
ID                             : 2
Format                         : AC-3
Format/Info                    : Audio Coding 3
Codec ID                       : A_AC3
Duration                       : 1h 53mn
Bit rate mode                  : Constant
Bit rate                       : 448 Kbps
Channel(s)                     : 6 channels
Channel positions              : Front: L C R, Side: L R, LFE
Sampling rate                  : 48.0 KHz
Stream size                    : 362 MiB (20%)
Language                       : English
Default                        : Yes


Subtitle:  [English (Subtitle 1)]


Screens:

 
http://i.imgbox.com/aby42HyS.png 
http://i.imgbox.com/adhZJl9n.png 
http://i.imgbox.com/abjPUFGd.png 
http://i.imgbox.com/adz023C2.png 
http://i.imgbox.com/abqPClvs.png


Sample:




------------------------------------------------------------------------


Recommend you to use VLC player. Check sample to be sure. Enjoy!


Greets to: srkfan, Vitamin_X, MgB, Feel_Free, staff members at ExtraTorrent, TPB,KAT, 1337x, PublicHD, Ahashare,
SilverTorrent, TorrentMafia, P2PDL, and all others


Encoder Notes: Looking For Early Access To Anything You Can Provide DVDScr, R5, DVDRips, BluRay, Direct Audio, Early Music
Releases, Seedboxes, Links, Dedicated Servers anything u can provide, Advance / Promo CDs/DVDs. If You Got anything to
offer contact me at "contact@tinym.eu"


Our Facebook Group:       
http://vt802.us/mbPOi


Our Facebook Fan Page:       
http://vt802.us/0OS2J
